<svg xmlns="http://www.w3.org/2000/svg" width="26.675" height="17.286" viewBox="0 0 26.675 17.286">
  <g id="Icon_ionic-ios-bicycle" data-name="Icon ionic-ios-bicycle" opacity="0.8">
    <g id="Group_1403" data-name="Group 1403" transform="translate(0 0)">
      <path id="Path_3427" data-name="Path 3427" d="M7.805,19.633A4.565,4.565,0,0,0,5.06,20.5a2.455,2.455,0,0,0,0,4.15,4.565,4.565,0,0,0,2.745.864,4.565,4.565,0,0,0,2.745-.864,2.451,2.451,0,0,0,0-4.146,4.568,4.568,0,0,0-2.745-.869m0-1.26c3.055,0,5.555,1.891,5.555,4.2s-2.5,4.2-5.555,4.2-5.555-1.891-5.555-4.2,2.495-4.2,5.555-4.2Z" transform="translate(13.314 -9.491)" fill="#141414"/>
      <path id="Path_3428" data-name="Path 3428" d="M22.141,7.372c-1.06,0-1.905-.639-1.905-1.441S21.07,4.5,22.129,4.5s1.917.63,1.917,1.432S23.2,7.372,22.141,7.372Z" transform="translate(-12.603 -4.5)" fill="#141414"/>
      <path id="Path_3429" data-name="Path 3429" d="M26.185,19.633a4.565,4.565,0,0,0-2.745.864,2.455,2.455,0,0,0,0,4.15,4.781,4.781,0,0,0,5.49,0,2.455,2.455,0,0,0,0-4.15,4.542,4.542,0,0,0-2.745-.869m0-1.26c3.055,0,5.555,1.891,5.555,4.2s-2.5,4.2-5.555,4.2-5.555-1.891-5.555-4.2,2.5-4.2,5.555-4.2Z" transform="translate(-20.63 -9.491)" fill="#141414"/>
    </g>
    <path id="Path_3430" data-name="Path 3430" d="M12.2,11.577h2.858l1.756-2.705a2.1,2.1,0,0,1,1.614-.716,2.293,2.293,0,0,1,1.334.419l4.269,3.111a1.315,1.315,0,0,1,.554,1.008c0,.783-.75,1.062-1.1,1.22-2.709,1.179-3.662,1.31-3.662,1.9V18.78c0,.4-.429.72-.953.72s-.953-.324-.953-.72V14.729c0-.594,1.81-1.08,2.876-1.711L17.883,10.7c-1.113,1.283-1.626,2.318-2.263,2.318H12.2c-.524,0-.953-.324-.953-.72S11.679,11.577,12.2,11.577Z" transform="translate(-5.534 -5.815)" fill="#141414"/>
  </g>
</svg>
