<svg xmlns="http://www.w3.org/2000/svg" width="16.131" height="11.292" viewBox="0 0 16.131 11.292">
  <path id="Icon_awesome-money-check-alt" data-name="Icon awesome-money-check-alt" d="M15.324,2.25H.807A.807.807,0,0,0,0,3.057v9.679a.807.807,0,0,0,.807.807H15.324a.807.807,0,0,0,.807-.807V3.057A.807.807,0,0,0,15.324,2.25ZM4.436,9.708v.406a.2.2,0,0,1-.2.2h-.4a.2.2,0,0,1-.2-.2V9.7a1.443,1.443,0,0,1-.791-.286.2.2,0,0,1-.014-.306l.3-.283a.207.207,0,0,1,.255-.018A.607.607,0,0,0,3.7,8.9h.708a.317.317,0,0,0,.3-.332.329.329,0,0,0-.221-.321L3.35,7.91a1.141,1.141,0,0,1-.8-1.094A1.122,1.122,0,0,1,3.629,5.681V5.275a.2.2,0,0,1,.2-.2h.4a.2.2,0,0,1,.2.2v.411a1.441,1.441,0,0,1,.791.286.2.2,0,0,1,.014.306l-.3.283a.207.207,0,0,1-.255.018.6.6,0,0,0-.323-.094H3.658a.317.317,0,0,0-.3.332.329.329,0,0,0,.221.321l1.134.34a1.141,1.141,0,0,1,.8,1.094A1.122,1.122,0,0,1,4.436,9.708Zm6.049-.4a.2.2,0,0,1-.2.2H7.461a.2.2,0,0,1-.2-.2V8.9a.2.2,0,0,1,.2-.2h2.823a.2.2,0,0,1,.2.2Zm4.033,0a.2.2,0,0,1-.2.2H12.3a.2.2,0,0,1-.2-.2V8.9a.2.2,0,0,1,.2-.2h2.016a.2.2,0,0,1,.2.2Zm0-2.42a.2.2,0,0,1-.2.2H7.461a.2.2,0,0,1-.2-.2v-.4a.2.2,0,0,1,.2-.2h6.856a.2.2,0,0,1,.2.2Z" transform="translate(0 -2.25)" fill="#141414" opacity="0.84"/>
</svg>
