<svg id="Group_37" data-name="Group 37" xmlns="http://www.w3.org/2000/svg" xmlns:xlink="http://www.w3.org/1999/xlink" width="324.008" height="170.979" viewBox="0 0 324.008 170.979">
  <defs>
    <clipPath id="clip-path">
      <rect id="Rectangle_3" data-name="Rectangle 3" width="86.278" height="56.967" rx="14.222" fill="none"/>
    </clipPath>
    <radialGradient id="radial-gradient" cx="0.109" cy="0.359" r="0.627" gradientTransform="translate(0.159) scale(0.683 1)" gradientUnits="objectBoundingBox">
      <stop offset="0" stop-color="#fff"/>
      <stop offset="1" stop-color="#fff" stop-opacity="0"/>
    </radialGradient>
    <linearGradient id="linear-gradient" x1="0.5" x2="0.5" y2="1" gradientUnits="objectBoundingBox">
      <stop offset="0" stop-color="#ffd71d"/>
      <stop offset="1" stop-color="#feb200"/>
    </linearGradient>
    <linearGradient id="linear-gradient-2" x1="-0.692" y1="0.5" x2="0.308" y2="0.5" gradientUnits="objectBoundingBox">
      <stop offset="0" stop-color="#343a44"/>
      <stop offset="0.301" stop-color="#232c3d"/>
      <stop offset="0.639" stop-color="#172339"/>
      <stop offset="1" stop-color="#142138"/>
    </linearGradient>
    <linearGradient id="linear-gradient-3" x1="0.15" y1="0.5" x2="1.15" y2="0.5" xlink:href="#linear-gradient-2"/>
  </defs>
  <g id="Group_36" data-name="Group 36">
    <path id="Path_1" data-name="Path 1" d="M122.342,164.373c-16.356,10.286-24.924,33.464-11.683,64.354H371.168c4.421-11.191,7.068-25.893,7.9-34.644,1.813-19.092-4.679-38.923-16.118-49.393C334,118.2,309.927,155,294.708,139.439c-8.785-8.981-7.952-34.188-14.826-45.888A70.016,70.016,0,0,0,207.977,59.56C189.234,62.6,172.329,72.521,162.017,89.3c-14.125,22.984-3.843,39.451-10.078,55.336C144.988,162.349,133.269,157.5,122.342,164.373Z" transform="translate(-86.135 -58.644)" fill="#afb3bd"/>
    <g id="Group_8" data-name="Group 8" transform="translate(56.657 53.501)">
      <g id="Group_2" data-name="Group 2">
        <path id="Path_2" data-name="Path 2" d="M181.825,170.995a22.538,22.538,0,0,0,2.38-1.352l1.021-1.583s1-.645,1.714-.992a10.056,10.056,0,0,0,2.031-2.487l-.52-.653a8.941,8.941,0,0,1-1,1.065,1.278,1.278,0,0,1-.75.024,13.443,13.443,0,0,1,.576-1.614,15.043,15.043,0,0,1,1.62-2.485l-.458-.48a13.147,13.147,0,0,0-1,1.044c-.264.349-.771,1.083-.771,1.083a14.46,14.46,0,0,1,.853-1.773c.326-.482.68-1.135.68-1.135l-.53-.368a11.955,11.955,0,0,0-.939,1.337c-.319.573-.91,1.522-.91,1.522a18.851,18.851,0,0,1,.671-1.878,6.694,6.694,0,0,0,.305-.635l-.628-.215a5.046,5.046,0,0,0-.743,1.327,7.036,7.036,0,0,1-.478,1.1,7.546,7.546,0,0,1,.393-1.592,1.382,1.382,0,0,0,.215-.509l-.509-.1s-.979,1.8-1.492,2.918-.915,2.626-1.206,3.443a31.569,31.569,0,0,0-.667,3.6Z" transform="translate(-179.105 -159.287)" fill="#f5c5b3"/>
        <path id="Path_3" data-name="Path 3" d="M194.617,189.385l-12.383-2.133a41.281,41.281,0,0,1-.134-6.346,16.757,16.757,0,0,1,.672-4.739l-3.323-.46s-.656,2.918-1.126,5.016c-1.044,4.651-2,9.008-1.2,9.98,1.157,1.409,11.462,4.278,14.988,6.922C194.231,199.217,194.108,194.122,194.617,189.385Z" transform="translate(-176.826 -166.979)" fill="#42b2fc"/>
      </g>
      <path id="Path_4" data-name="Path 4" d="M242.772,264.345l-.626,4.283,1.294,2.935.946-1.278.218-2.393,1.4.21.686-.861-.06-1.793-.23-4.88Z" transform="translate(-207.423 -206.728)" fill="#fec4ad"/>
      <path id="Path_5" data-name="Path 5" d="M238.08,206.085a16.586,16.586,0,0,0-4.068-.122,12.817,12.817,0,0,0,.971,5.892c1.264,2.568,4.4,11.921,4.8,12.8s-.831,14.078-.831,14.078l4.549-.932s2.192-10.18,2.175-12.768-2.438-12.273-4.159-15.361S240.4,206.941,238.08,206.085Z" transform="translate(-203.599 -181.116)" fill="#42b2fc"/>
      <path id="Path_6" data-name="Path 6" d="M220.987,188.346s-1,4.389-.218,5.41c.459.6,2.4,2.73,2.4,2.73s-6.444,3.4-8.338,3.4-1.231-3.8-1.231-3.8,2.066-1.633,2.374-2.458a18.539,18.539,0,0,0,.479-3.213Z" transform="translate(-194.001 -172.898)" fill="#fec4ad"/>
      <g id="Group_6" data-name="Group 6" transform="translate(18.556 6.354)">
        <g id="Group_3" data-name="Group 3" transform="translate(9.058 7.699)">
          <path id="Path_7" data-name="Path 7" d="M228.9,187.28s-.073-1.6,1.266-1.558c.855.026.921.81.255,1.821-.281.425-.309,1.388-.657,1.7-.423.376-.777-.2-.906-.469A3.185,3.185,0,0,1,228.9,187.28Z" transform="translate(-228.771 -185.722)" fill="#f5c5b3"/>
        </g>
        <g id="Group_4" data-name="Group 4" transform="translate(0 7.699)">
          <path id="Path_8" data-name="Path 8" d="M213.7,187.28s.074-1.6-1.266-1.558c-.855.026-.921.81-.255,1.821.281.425.309,1.388.657,1.7.423.376.777-.2.906-.469A3.184,3.184,0,0,0,213.7,187.28Z" transform="translate(-211.732 -185.722)" fill="#f5c5b3"/>
        </g>
        <path id="Path_9" data-name="Path 9" d="M222.848,177.787a15.183,15.183,0,0,1-.271,1.626c-.032.186-.066.4-.1.644-.277,1.919-.628,4.528-.779,4.917a6.873,6.873,0,0,1-2.271,2.073,3.908,3.908,0,0,1-2.939-.078c-.651-.383-2.123-1.35-2.374-2-.154-.4-.517-3.081-.8-5.031-.032-.222-.063-.414-.092-.584a14.69,14.69,0,0,1-.264-1.571c-.1-1.621,1.725-3.978,4.944-3.978C221.713,173.809,222.949,176.167,222.848,177.787Z" transform="translate(-212.306 -172.443)" fill="#f5c5b3"/>
        <path id="Path_10" data-name="Path 10" d="M216,176.254a7.7,7.7,0,0,1,5.9.216l1.136-.724A9.318,9.318,0,0,0,219,174.9C216.615,174.915,216,176.254,216,176.254Z" transform="translate(-213.731 -172.953)" fill="#e8d4e5" style="mix-blend-mode: multiply;isolation: isolate"/>
        <g id="Group_5" data-name="Group 5" transform="translate(0.919 6.524)">
          <path id="Path_11" data-name="Path 11" d="M222.814,183.958c-.031.186-.066.4-.1.644-.277,1.918-.628,4.528-.779,4.917a6.867,6.867,0,0,1-2.271,2.073,3.907,3.907,0,0,1-2.939-.078c-.651-.383-2.124-1.35-2.374-2-.154-.4-.517-3.081-.8-5.031-.032-.222-.062-.414-.092-.584l.263-.392s.474,2.782,1.2,3.646.864.9.864.9l1.485-.367.119-.03a3.489,3.489,0,0,1,1.732.014c.031.007.062.016.094.026l.108.032,1.125.325s.262-.04.988-.9,1.076-3.646,1.076-3.646Z" transform="translate(-213.461 -183.511)" fill="#7b2b1a"/>
        </g>
        <path id="Path_12" data-name="Path 12" d="M230.7,177.587c-.011.053-.272,1.948-.379,2.248-.165.459-.291.791-.291.791l-.2-.424a6.306,6.306,0,0,1-.576-2.5l-.035-1.625.541-.478C230.834,175.755,230.948,176.372,230.7,177.587Z" transform="translate(-219.927 -173.28)" fill="#7b2b1a"/>
        <path id="Path_13" data-name="Path 13" d="M214.314,176.251v.007l-.259,1.672a6.317,6.317,0,0,1-.777,2.2l-.022.038-.3.509s-.087-.3-.207-.716c-.089-.309-.309-1.894-.363-2.118-.017-.07-.032-.138-.045-.2-.227-1.189-.005-1.687,1.049-1.846Z" transform="translate(-211.981 -173.373)" fill="#7b2b1a"/>
        <path id="Path_14" data-name="Path 14" d="M222.308,173.555l-.541.478-1.03.37a8.174,8.174,0,0,0-3.628-.652c-2.064.159-2.345.753-2.375.789v0l-.213-.046-1.014-.222-.207-.046a6.421,6.421,0,0,1,.4-1.147c.812-1.224,3.021-2.015,5.027-1.812.068.006.135.014.2.023a4.835,4.835,0,0,1,2.734,1.13Z" transform="translate(-212.467 -171.239)" fill="#7b2b1a"/>
      </g>
      <path id="Path_15" data-name="Path 15" d="M232.888,371.488v4.019h-7.725s.29-1.455,3.953-2.126l.539-1.893Z" transform="translate(-199.468 -258.684)" fill="#133a50"/>
      <path id="Path_16" data-name="Path 16" d="M210.787,371.488v4.019h-7.725s.29-1.455,3.953-2.126l.539-1.893Z" transform="translate(-189.115 -258.684)" fill="#133a50"/>
      <path id="Path_17" data-name="Path 17" d="M224.718,258.934s1.081,12.947,1.119,23.5.667,37.249.667,37.249H222.24s-4.4-25.635-5.994-32.422-5.753-28.2-5.753-28.2Z" transform="translate(-192.596 -205.963)" fill="#133a50"/>
      <path id="Path_18" data-name="Path 18" d="M210.851,272.883s-.8,16.086-.959,19.254,0,27.581,0,27.581-3.995.107-3.995,0-3.767-26-4.255-33.8-.2-17.057-.85-18.136,1.749-8.747,1.749-8.747l5.655,1.508Z" transform="translate(-188 -206.009)" fill="#133a50"/>
      <path id="Path_19" data-name="Path 19" d="M210.453,199.944s-1.772,4.018.894,4.462c4.238.705,5.529-4.717,5.529-4.717l4.673,2.406s-.086,29.088,1.751,37.968c1.066,5.156-16.679,2.7-19.282-1.878-2.253-3.961,4.255-36.875,4.255-36.875Z" transform="translate(-189.341 -178.212)" fill="#fff"/>
      <path id="Path_20" data-name="Path 20" d="M226.543,200.635c-.129.178-6.4,18.523-4.263,35.787.5,4.026,7.838.7,9.589.7,0,0,.833-12.885,1.037-17.677s-2.08-6.367-1.876-8.712,2.753-6.525,2.753-6.525Z" transform="translate(-197.91 -178.655)" fill="#42b2fc"/>
      <g id="Group_7" data-name="Group 7" transform="translate(12.424 22.155)">
        <path id="Path_21" data-name="Path 21" d="M205.929,238.4c.717-12,1.01-37.125,1.01-37.125l-4.235-.315s-2.118,21.071-2.149,23.467c-.013.952.285,12.524-.358,14.689C201.625,239.335,205.843,239.85,205.929,238.4Z" transform="translate(-200.197 -200.964)" fill="#42b2fc"/>
      </g>
    </g>
    <path id="Path_22" data-name="Path 22" d="M286.328,188.343c-3.325,1.14-6.742,2.333-9.382,4.654s-4.341,6.074-3.229,9.408,5.746,5.275,8.425,3a3.027,3.027,0,0,0,1.04-3.372c-1.022-2.278-4.582-1.21-6.252.647a10.045,10.045,0,0,0-2.748,8.135c.49,2.921,3.041,5.545,6,5.542s7.181-4.47,4.646-6c-3.219-1.944-7.356,2.686-8.939,6.1s-.594,8.03,2.641,9.946,10.827-.507,8.839-3.7c-2.1-3.373-8.312,1.491-9.138,5.379a7.491,7.491,0,0,0,6.164,8.628c3.946.479,10.781-4.014,8.05-6.9-3.947-4.172-10.527,6.452-8.627,11.873s9.748,7.577,14.151,3.89a3.247,3.247,0,0,0,1.416-2.743c-.255-1.774-2.683-2.274-4.383-1.705-4.435,1.482-6.438,7.688-3.706,11.482s9.254,3.864,12.065.128a3.208,3.208,0,0,0,.775-2.531,2.581,2.581,0,0,0-3-1.707,4.888,4.888,0,0,0-2.973,2.232,9.112,9.112,0,0,0,14.17,11.363,3.826,3.826,0,0,0,1.266-3.159,2.994,2.994,0,0,0-3.04-2.206A5.305,5.305,0,0,0,307,258.515c-3.97,4.123-2.274,12.1,3.031,14.254s15.826-3.772,12.1-8.118c-2.487-2.9-7.395,3.376-6.767,7.147s4.965,6.341,8.662,5.369,8.566-6.274,5.71-8.814c-2.021-1.8-5.292,2-5.916,4.635a6.213,6.213,0,0,0,3.2,6.8c2.613,1.285,5.813.511,8.326-.96s4.6-3.571,7.019-5.191a21.958,21.958,0,0,1,16.771-3.143" transform="translate(-165.392 -119.396)" fill="none" stroke="#fff" stroke-miterlimit="10" stroke-width="2"/>
    <g id="Group_13" data-name="Group 13" transform="translate(207.707 86.062)">
      <path id="Path_23" data-name="Path 23" d="M567.778,220.744c-5.384-3.437-53.382,37.026-51.623,68.994,0,0,9.344-12.618,17.488-18.768s8.939-12.588,8.923-18.963,12.164-3.742,13.536-10.814C558.53,228.679,572.624,223.838,567.778,220.744Z" transform="translate(-486.799 -220.539)" fill="#4fae86"/>
      <g id="Group_10" data-name="Group 10" transform="translate(27.948 7.994)">
        <g id="Group_9" data-name="Group 9" transform="translate(0.942)">
          <path id="Path_24" data-name="Path 24" d="M570.562,257.572c-7.754,4.7-5.472,10.958-10.044,14.615-3.325,2.66-8.873,1.268-11.639,4.89-3.117,4.082.427,9.7.69,14.619.362,6.795-5.7,11.89-11.857,13.954-7.151,2.4-16.406,1.647-20.321-5.464-4.621-8.393-1.162-21.046,6.945-24.988,1.969-.957,4.47-1.217,6.078-3.156,2.715-3.272.972-7.978,2.23-12.139,1.225-4.056,5.236-6.909,8.93-8.173s7.457-1.52,11.067-2.986c4.916-2,9.221-6.384,13.315-9.344,3.652-2.64,16.471-7.594,18.556,1.063C586.411,248.348,577.076,253.627,570.562,257.572Z" transform="translate(-515.32 -235.577)" fill="#319188"/>
        </g>
        <path id="Path_25" data-name="Path 25" d="M570.532,253.219s-31.695,15.928-56.983,67.323" transform="translate(-513.549 -243.841)" fill="none" stroke="#194459" stroke-miterlimit="10" stroke-width="1"/>
      </g>
      <path id="Path_26" data-name="Path 26" d="M591,298.379s-40.754-.456-74.618,38.389" transform="translate(-486.928 -257)" fill="none" stroke="#fff" stroke-miterlimit="10" stroke-width="1"/>
      <g id="Group_12" data-name="Group 12" transform="translate(31.017 49.186)">
        <g id="Group_11" data-name="Group 11" transform="translate(6.287)">
          <path id="Path_27" data-name="Path 27" d="M577.707,323.431c-3.884,1.554-4.937,8.1-9.12,8.933-3.042.6-6.289-2.09-9.261-.692-3.351,1.575-2.761,6.3-4.131,9.508-1.891,4.433-7.513,5.692-12.25,4.993-5.5-.811-11.408-4.306-11.776-10.1-.433-6.837,5.834-13.744,12.452-13.6,1.607.034,3.349.685,5.025-.021,2.83-1.192,3.15-4.749,5.29-6.981,2.086-2.176,5.644-2.68,8.493-2.277s5.428,1.467,8.284,1.713c3.89.336,8.125-1.046,11.771-1.59,3.253-.485,16.539-.229,11.985,6.728C591.317,324.862,582.883,321.359,577.707,323.431Z" transform="translate(-531.148 -313.066)" fill="#4fae86"/>
        </g>
        <path id="Path_28" data-name="Path 28" d="M580.547,320.494s-28.309,2.41-61.226,26.8" transform="translate(-519.321 -316.546)" fill="none" stroke="#194459" stroke-miterlimit="10" stroke-width="1"/>
      </g>
      <path id="Path_29" data-name="Path 29" d="M460.974,358.544s6.442-11.278,7.492-12.441c6.626-7.335,15.417-7.416,24.365-5.564,2.589.536,9.444,4.137,11.932,3.64,1.938-.388,4.263-7.751,10.464-7.364s6.574,7.751,6.574,7.751,3.889-8.556,10.09-7.766,6.2,6.565,1.55,10.847c0,0,9.883-2.965,19.474,1.628s5.01,10.615,5.01,10.615Z" transform="translate(-460.974 -274.973)" fill="#319188"/>
    </g>
    <g id="Group_18" data-name="Group 18" transform="translate(12.229 86.062)">
      <path id="Path_30" data-name="Path 30" d="M135.806,220.744c5.384-3.437,53.382,37.026,51.623,68.994,0,0-9.344-12.618-17.488-18.768s-8.939-12.588-8.923-18.963-12.164-3.742-13.536-10.814C145.054,228.679,130.96,223.838,135.806,220.744Z" transform="translate(-112.713 -220.539)" fill="#4fae86"/>
      <g id="Group_15" data-name="Group 15" transform="translate(5.741 7.994)">
        <g id="Group_14" data-name="Group 14">
          <path id="Path_31" data-name="Path 31" d="M118.249,257.572c7.754,4.7,5.472,10.958,10.044,14.615,3.325,2.66,8.873,1.268,11.639,4.89,3.117,4.082-.427,9.7-.689,14.619-.362,6.795,5.7,11.89,11.857,13.954,7.151,2.4,16.406,1.647,20.321-5.464,4.621-8.393,1.161-21.046-6.945-24.988-1.969-.957-4.47-1.217-6.078-3.156-2.715-3.272-.972-7.978-2.23-12.139-1.225-4.056-5.236-6.909-8.93-8.173s-7.457-1.52-11.067-2.986c-4.916-2-9.221-6.384-13.315-9.344-3.652-2.64-16.471-7.594-18.556,1.063C102.4,248.348,111.736,253.627,118.249,257.572Z" transform="translate(-104.05 -235.577)" fill="#319188"/>
        </g>
        <path id="Path_32" data-name="Path 32" d="M129.257,253.219s31.695,15.928,56.983,67.323" transform="translate(-115.857 -243.841)" fill="none" stroke="#194459" stroke-miterlimit="10" stroke-width="1"/>
      </g>
      <path id="Path_33" data-name="Path 33" d="M93.251,298.379s40.754-.456,74.618,38.389" transform="translate(-93.251 -257)" fill="none" stroke="#fff" stroke-miterlimit="10" stroke-width="1"/>
      <g id="Group_17" data-name="Group 17" transform="translate(2.505 49.186)">
        <g id="Group_16" data-name="Group 16">
          <path id="Path_34" data-name="Path 34" d="M115.668,323.431c3.884,1.554,4.937,8.1,9.12,8.933,3.042.6,6.289-2.09,9.261-.692,3.351,1.575,2.761,6.3,4.13,9.508,1.892,4.433,7.514,5.692,12.25,4.993,5.5-.811,11.408-4.306,11.776-10.1.433-6.837-5.834-13.744-12.452-13.6-1.607.034-3.349.685-5.025-.021-2.83-1.192-3.15-4.749-5.29-6.981-2.087-2.176-5.644-2.68-8.493-2.277s-5.428,1.467-8.284,1.713c-3.89.336-8.125-1.046-11.771-1.59-3.253-.485-16.539-.229-11.985,6.728C102.058,324.862,110.492,321.359,115.668,323.431Z" transform="translate(-97.964 -313.066)" fill="#4fae86"/>
        </g>
        <path id="Path_35" data-name="Path 35" d="M115.5,320.494s28.309,2.41,61.226,26.8" transform="translate(-106.18 -316.546)" fill="none" stroke="#194459" stroke-miterlimit="10" stroke-width="1"/>
      </g>
      <path id="Path_36" data-name="Path 36" d="M202.633,358.544s-6.442-11.278-7.493-12.441c-6.626-7.335-15.416-7.416-24.365-5.564-2.589.536-9.444,4.137-11.932,3.64-1.938-.388-4.263-7.751-10.464-7.364s-6.574,7.751-6.574,7.751-3.89-8.556-10.09-7.766-6.2,6.565-1.55,10.847c0,0-9.883-2.965-19.474,1.628s-5.01,10.615-5.01,10.615Z" transform="translate(-98.561 -274.973)" fill="#319188"/>
    </g>
    <g id="Group_25" data-name="Group 25" transform="translate(166.094 100.517)">
      <g id="Group_19" data-name="Group 19" transform="translate(6.829 60.232)">
        <path id="Path_37" data-name="Path 37" d="M408.343,370.9H398.318a2.127,2.127,0,0,1-2.119-1.951l-.657-7.915h15.577l-.656,7.915A2.127,2.127,0,0,1,408.343,370.9Z" transform="translate(-395.542 -361.037)" fill="#21295b"/>
        <path id="Path_38" data-name="Path 38" d="M519.7,370.9H509.671a2.127,2.127,0,0,1-2.119-1.951l-.657-7.915h15.577l-.657,7.915A2.127,2.127,0,0,1,519.7,370.9Z" transform="translate(-447.7 -361.037)" fill="#21295b"/>
      </g>
      <path id="Path_39" data-name="Path 39" d="M470.19,303.984H397.5l5.14-37.476a5.905,5.905,0,0,1,5.85-5.1H459.2a5.9,5.9,0,0,1,5.85,5.1Z" transform="translate(-389.628 -254.137)" fill="#9d5000" opacity="0.97"/>
      <path id="Path_40" data-name="Path 40" d="M469.024,290.309H415.951l3.77-37.649a5.475,5.475,0,0,1,5.448-4.929h34.637a5.475,5.475,0,0,1,5.447,4.929Z" transform="translate(-398.272 -247.731)" fill="#9d5000" opacity="0.97"/>
      <path id="Path_41" data-name="Path 41" d="M398.663,325.5,397.5,334H470.19l-1.167-8.508Z" transform="translate(-389.628 -284.157)" fill="#cfcfcf" style="mix-blend-mode: multiply;isolation: isolate"/>
      <path id="Path_42" data-name="Path 42" d="M471.125,351.923h-88.43l1.637-19.212h85.156Z" transform="translate(-382.695 -287.536)" fill="#9d5000" opacity="0.97"/>
      <g id="Group_24" data-name="Group 24" transform="translate(21.829 1.042)">
        <circle id="Ellipse_1" data-name="Ellipse 1" cx="16.179" cy="16.179" r="16.179" transform="translate(0 17.654) rotate(-33.065)" fill="#cfcfcf" style="mix-blend-mode: multiply;isolation: isolate"/>
        <circle id="Ellipse_2" data-name="Ellipse 2" cx="13.989" cy="13.989" r="13.989" transform="translate(8.073 8.728) rotate(-1.34)" fill="#fff"/>
        <g id="Group_23" data-name="Group 23" transform="translate(10.218 10.221)">
          <g id="Group_20" data-name="Group 20" transform="translate(14.256 20.04)">
            <path id="Path_43" data-name="Path 43" d="M471.62,310.246a1.828,1.828,0,0,1-1.287-.529,1.475,1.475,0,0,1-.223-.28,1.793,1.793,0,0,1-.171-.311,2.553,2.553,0,0,1-.1-.337,2.1,2.1,0,0,1-.036-.358,1.822,1.822,0,0,1,2.174-1.78,1.94,1.94,0,0,1,.338.1,2.03,2.03,0,0,1,.317.166,1.9,1.9,0,0,1,.274.229,1.826,1.826,0,0,1,.535,1.281,2.1,2.1,0,0,1-.037.358,2.471,2.471,0,0,1-.1.337,2.266,2.266,0,0,1-.166.311,1.716,1.716,0,0,1-.229.28,1.9,1.9,0,0,1-.274.223,1.425,1.425,0,0,1-.317.166,1.6,1.6,0,0,1-.338.1A1.69,1.69,0,0,1,471.62,310.246Z" transform="translate(-469.799 -306.616)" fill="#b3b3b3"/>
          </g>
          <g id="Group_21" data-name="Group 21">
            <path id="Path_44" data-name="Path 44" d="M453.428,293.226h0a1.816,1.816,0,0,1-1.541-2.055h0a1.816,1.816,0,0,1,2.055-1.541h0a1.822,1.822,0,0,1,1.542,2.055h0a1.819,1.819,0,0,1-1.8,1.561h0A1.409,1.409,0,0,1,453.428,293.226Zm-5.837-2.48h0a1.822,1.822,0,0,1-.312-2.553h0a1.816,1.816,0,0,1,2.548-.311h0a1.816,1.816,0,0,1,.312,2.547h0a1.806,1.806,0,0,1-1.433.7h0A1.807,1.807,0,0,1,447.591,290.746Zm-3.814-5.075a1.81,1.81,0,0,1,1-2.361h0a1.818,1.818,0,0,1,2.366,1h0a1.825,1.825,0,0,1-1.007,2.366h0a1.838,1.838,0,0,1-.68.13h0A1.8,1.8,0,0,1,443.777,285.671Zm.768-4.244A1.819,1.819,0,0,1,443,279.372h0a1.817,1.817,0,0,1,2.055-1.541h0a1.817,1.817,0,0,1,1.546,2.049h0a1.819,1.819,0,0,1-1.8,1.562h0A2.045,2.045,0,0,1,444.546,281.427Zm1.25-5.345a1.816,1.816,0,0,1-.317-2.547h0a1.812,1.812,0,0,1,2.548-.317h0a1.812,1.812,0,0,1,.316,2.548h0a1.8,1.8,0,0,1-1.432.7h0A1.807,1.807,0,0,1,445.8,276.082Zm14.663-1.806a1.812,1.812,0,0,1-.317-2.547h0a1.817,1.817,0,0,1,2.548-.322h0a1.822,1.822,0,0,1,.317,2.553h0a1.822,1.822,0,0,1-1.433.7h0A1.827,1.827,0,0,1,460.459,274.277Zm-10.912-2.2a1.81,1.81,0,0,1,1-2.361h0a1.817,1.817,0,0,1,2.367,1h0a1.82,1.82,0,0,1-1.007,2.366h0a1.818,1.818,0,0,1-.679.13h0A1.81,1.81,0,0,1,449.547,272.077Zm6.792.457a1.816,1.816,0,0,1-1.541-2.055h0a1.811,1.811,0,0,1,2.05-1.542h0a1.811,1.811,0,0,1,1.546,2.05h0a1.818,1.818,0,0,1-1.8,1.562h0A2.132,2.132,0,0,1,456.339,272.533Z" transform="translate(-442.981 -268.918)" fill="#b3b3b3"/>
          </g>
          <g id="Group_22" data-name="Group 22" transform="translate(20.041 6.444)">
            <path id="Path_45" data-name="Path 45" d="M482.5,284.672a1.98,1.98,0,0,1-.352-.036,1.87,1.87,0,0,1-.343-.1,2.186,2.186,0,0,1-.311-.166,1.983,1.983,0,0,1-.28-.228,1.823,1.823,0,0,1-.53-1.282,1.7,1.7,0,0,1,.036-.358,1.576,1.576,0,0,1,.1-.337,1.788,1.788,0,0,1,.166-.316,1.869,1.869,0,0,1,.223-.275,2.1,2.1,0,0,1,.591-.394,1.859,1.859,0,0,1,.343-.1,1.826,1.826,0,0,1,1.634.493,1.608,1.608,0,0,1,.228.275,1.824,1.824,0,0,1,.166.316,1.613,1.613,0,0,1,.1.337,1.707,1.707,0,0,1,.036.358,1.824,1.824,0,0,1-1.816,1.816Z" transform="translate(-480.682 -281.041)" fill="#b3b3b3"/>
          </g>
        </g>
      </g>
    </g>
    <g id="Group_26" data-name="Group 26" transform="translate(114.186 38.702)">
      <path id="Path_46" data-name="Path 46" d="M426.161,173.8a7.76,7.76,0,0,1,1.558-8.115s13.156,8.524,27.86,6.119c0,0,1.612,4.435-2.908,8.542C452.672,180.343,436.932,183.327,426.161,173.8Z" transform="translate(-350.899 -147.484)" fill="#d6313b"/>
      <path id="Path_47" data-name="Path 47" d="M382.831,138.892c-9.467-7.983-27.4-9.105-50.1-5.45-19.518,3.142-39.4,10.515-46.033,20.928-3.022,4.743-.97,17.915-.97,17.915,17.98,1.123,24.566-14.335,24.566-14.335s-1.2-4.386,2.826-6.324c14.1-6.783,35.95-9.1,44.079-7.1a6.023,6.023,0,0,1,4.668,5.118s11.105,12.61,27.824,5.9C389.693,155.546,387.13,142.518,382.831,138.892Z" transform="translate(-285.048 -131.449)" fill="#ff3a46"/>
      <path id="Path_48" data-name="Path 48" d="M314.289,188.235a7.759,7.759,0,0,0-4.027-7.216s-9.816,12.222-24.531,14.554c0,0-.139,4.716,5.442,7.2C291.173,202.77,307.053,200.664,314.289,188.235Z" transform="translate(-285.368 -154.668)" fill="#d6313b"/>
    </g>
    <g id="Group_28" data-name="Group 28" transform="translate(60.791 113.56)">
      <g id="Group_27" data-name="Group 27" clip-path="url(#clip-path)">
        <rect id="Rectangle_2" data-name="Rectangle 2" width="86.278" height="56.967" rx="14.222" fill="#ffd71d"/>
        <path id="Path_49" data-name="Path 49" d="M270.882,279.827a7.561,7.561,0,0,0-7.561-7.56H192.164a7.56,7.56,0,0,0-7.56,7.56l39.123,31.716a6.3,6.3,0,0,0,7.935,0Z" transform="translate(-184.604 -272.267)" fill="#ffd71d" style="mix-blend-mode: multiply;isolation: isolate"/>
        <path id="Path_50" data-name="Path 50" d="M189.64,323.354V281.509a7.56,7.56,0,0,1,7.56-7.56h70.821a7.488,7.488,0,0,0-4.7-1.681H192.164a7.56,7.56,0,0,0-7.56,7.56v41.846a7.56,7.56,0,0,0,7.56,7.56h.336A7.514,7.514,0,0,1,189.64,323.354Z" transform="translate(-184.604 -272.267)" opacity="0.7" fill="url(#radial-gradient)" style="mix-blend-mode: overlay;isolation: isolate"/>
        <path id="Path_51" data-name="Path 51" d="M222.975,306.03,184.6,272.267h86.278L232.511,306.03A7.219,7.219,0,0,1,222.975,306.03Z" transform="translate(-184.604 -272.267)" fill="url(#linear-gradient)"/>
        <path id="Path_52" data-name="Path 52" d="M222.975,306.03,184.6,272.267h86.278L232.511,306.03A7.219,7.219,0,0,1,222.975,306.03Z" transform="translate(-184.604 -272.267)" fill="#fd0" opacity="0.7" style="mix-blend-mode: overlay;isolation: isolate"/>
      </g>
    </g>
    <g id="Group_31" data-name="Group 31" transform="translate(147.315 48.245)">
      <g id="Group_29" data-name="Group 29" transform="translate(18.15)">
        <path id="Path_53" data-name="Path 53" d="M391.7,180.254s2.455-7.086,2.628-7.866c1.017-4.6,1.294-14.587,1.23-16.711s-.262-3.986-.3-4.272a9.5,9.5,0,0,0-1.364-1.684,2.878,2.878,0,0,1-.409.044l-.015.266-.569-.49-.474-.027-.051.222-.677-.325-.652-.012s.421,1.348.661,2.167-.011.887-.011.887a1.786,1.786,0,0,1-.731.136,5.088,5.088,0,0,0-.927-.04s1.983,2.579,2.074,2.818a4.669,4.669,0,0,1,.8,3.731,95.2,95.2,0,0,1-2.824,10.317c.062-.145-2.668,7.648-2.668,7.648Z" transform="translate(-384.275 -149.4)" fill="#fec4ad"/>
        <path id="Path_54" data-name="Path 54" d="M387.613,211.417a56.566,56.566,0,0,1,3.812-12.928s-4.664-.923-5.869-2.582c0,0-1.607,3.925-2.532,5.877-1.023,2.161-2.458,4.513-.654,5.8C384.111,208.819,387.349,213.495,387.613,211.417Z" transform="translate(-381.51 -171.184)" fill="#42b2fc"/>
      </g>
      <path id="Path_55" data-name="Path 55" d="M359.364,372.337v3.834h7.368s-.277-1.387-3.771-2.028l-.514-1.806Z" transform="translate(-352.987 -253.826)" fill="#133a50"/>
      <path id="Path_56" data-name="Path 56" d="M380.446,372.337v3.834h7.369s-.277-1.387-3.772-2.028l-.514-1.806Z" transform="translate(-362.862 -253.826)" fill="#133a50"/>
      <path id="Path_57" data-name="Path 57" d="M360.192,264.971s-1.031,10.714-1.067,20.785-.636,37.168-.636,37.168h4.067s4.193-26.089,5.718-32.564,5.488-25.268,5.488-25.268Z" transform="translate(-352.577 -203.535)" fill="#133a50"/>
      <path id="Path_58" data-name="Path 58" d="M370.327,198.129s-.263,2.05-.479,3.093a8.35,8.35,0,0,1-.555,1.911,23.37,23.37,0,0,1-2.516,2.857s6.743,3.56,8.726,3.56,1.288-3.976,1.288-3.976-2.162-1.709-2.484-2.572a19.4,19.4,0,0,1-.5-3.363Z" transform="translate(-356.459 -172.225)" fill="#fec4ad"/>
      <path id="Path_59" data-name="Path 59" d="M378.33,276.467s.762,16.981.914,20,0,26.309,0,26.309,3.811.1,3.811,0,3.593-26.435,4.059-33.88.193-16.271.811-17.3-1.669-6.708-1.669-6.708l-5.394-.2Z" transform="translate(-361.871 -203.404)" fill="#133a50"/>
      <path id="Path_60" data-name="Path 60" d="M363.224,208.136s-5.693-2.285-6.635-.409c-.711,1.417-.1,10.527.217,13.072.275,2.214,1.808,20.842,1.808,20.842s2.129,3.3,12.369,1.984a10.662,10.662,0,0,0,5.891-2.431s-1.107-22.227-1.412-24.457a48.116,48.116,0,0,0-1.359-5.71l-3.049-2.007s.972,2.146-1.779,2.757C363.731,213.009,363.224,208.136,363.224,208.136Z" transform="translate(-351.532 -176.375)" fill="#42b2fc"/>
      <path id="Path_61" data-name="Path 61" d="M377.018,183.55c.645.259,1.774.841,1.9,1.379a21.393,21.393,0,0,1,.643,3.047c.06.946.2,2.736.194,3.851a9.834,9.834,0,0,1-.929,3.61,5.546,5.546,0,0,1-2.761.445c-.634-.181-4.35-2.1-4.582-4.456,0,0-.659.347-1.87-1.617-.316-.512.774-4.316.92-4.994.356-1.648,4.42-.35,5.331-.61A1.978,1.978,0,0,0,377.018,183.55Z" transform="translate(-357.76 -165.396)" fill="#fec4ad"/>
      <path id="Path_62" data-name="Path 62" d="M377.2,183.284s-2.847,1.782-3.958,1.874-2.742,1.618-2.712,2.092a1.029,1.029,0,0,1-.468.8s-.692-1.1-1.258-.987c-1.122.227-.463,1.611.146,1.915a9.4,9.4,0,0,0,1.2.492,5.807,5.807,0,0,1,.053,1.187,5.444,5.444,0,0,1-.475,1.39,15.493,15.493,0,0,0-2.493-3.8c-2.8-2.455-.773-7.016,1.987-7.873a10.778,10.778,0,0,1,5.664.092A4.058,4.058,0,0,1,377.2,183.284Z" transform="translate(-356.047 -163.75)" fill="#133a50"/>
      <path id="Path_63" data-name="Path 63" d="M374.187,191.911c.041.112.333.132.387.156.116.051.066.069.578.853.378.578,1.012.765,2.2.369.9-.3.778-1.08.842-1.45s.142-.433.287-.458.223.009.409.335.273,1.168,1.217,1.027c.651-.1.823-.278.911-.793a5.361,5.361,0,0,0,.074-1.248c-.026-.341-.033-.549-.206-.567a3.169,3.169,0,0,0-.776.085,3.132,3.132,0,0,0-1.275.332c-.306.221-.272.357-.433.387s-.192-.109-.555-.214a10.987,10.987,0,0,0-2.428.258c-.563.1-1.337.31-1.322.524A1.592,1.592,0,0,0,374.187,191.911Zm4.87-.839c.029-.276.05-.246.747-.405s.77-.129.91-.018a1.485,1.485,0,0,1,.173,1.124.77.77,0,0,1-.672.807c-.613.108-.756-.2-.93-.621A2.645,2.645,0,0,1,379.057,191.071Zm-4.06.453a5.283,5.283,0,0,1,1.747-.368c.71-.088.946-.117,1.067.133a2.627,2.627,0,0,1,.089.912c-.018.459-.108.861-1.214,1.06a1.188,1.188,0,0,1-1.48-.659A1.293,1.293,0,0,1,375,191.525Zm-2.367.7,1.557-.318.526-.768s-.6.085-1.586.3a3.029,3.029,0,0,0-.937.442A1.529,1.529,0,0,1,372.631,192.229Z" transform="translate(-358.995 -168.479)" fill="#21295b"/>
      <g id="Group_30" data-name="Group 30" transform="translate(0 5.551)">
        <path id="Path_64" data-name="Path 64" d="M348.729,185.8s-1.347-8.533-1.36-9.331c-.077-4.715,2.313-11.05,2.8-13.118s.811-1.74.908-2.012,3.522-.8,3.522-.8a9.134,9.134,0,0,1,1.136-.406c.215-.021,1.119-.291,1.119-.291l-.526.945s-2.135,1.624-2.272,1.84a4.667,4.667,0,0,0-1.527,3.5c-.088,4.219-.074,8.789-.074,8.789-.031-.154,2.02,8.737,2.02,8.737Z" transform="translate(-347.368 -159.843)" fill="#fec4ad"/>
        <path id="Path_65" data-name="Path 65" d="M353.091,217.193c-1.449-4.112-4.764-15.156-4.764-15.156s4.928-1.241,6.318-2.747c0,0,1.663,4.938,2.354,6.985.764,2.265,1.915,4.769-.025,5.833C355.1,213.136,353.786,219.168,353.091,217.193Z" transform="translate(-347.817 -178.32)" fill="#42b2fc"/>
      </g>
    </g>
    <g id="Group_35" data-name="Group 35" transform="translate(213.422 52.056)">
      <g id="Group_32" data-name="Group 32" transform="translate(3.271 36.69)">
        <path id="Path_66" data-name="Path 66" d="M523.446,244.226c1.28,1.191,2.184.792,4.105,7.369,1.228,4.2,5.7,25.395,5.7,25.395l-2.674,1.16c-3.616-10.13-3.612-10.12-7.837-18.342a36.564,36.564,0,0,1-2.906-7.916l-7.811-.469c-4.884-2.007-3.21-9.135-3.21-9.135S522.166,243.035,523.446,244.226Z" transform="translate(-492.242 -233.412)" fill="url(#linear-gradient-2)"/>
        <path id="Path_67" data-name="Path 67" d="M479.494,230.1l7.048-4.514,6.818,5.3,8.492,2.743-.046.026c3.415,1.185,7.316,2.914,8.513,4.027,1.279,1.191,3.8,2.881,1.767,9.424-1.3,4.18-6.963,25.357-6.963,25.357l-2.871-.511s1.02-12.271,2.041-21.45c.495-4.45.663-5.691.663-5.691s-18.961,2.067-25.07-1.159C475.611,241.394,479.494,233.525,479.494,230.1Z" transform="translate(-477.879 -225.59)" fill="url(#linear-gradient-3)"/>
        <path id="Path_68" data-name="Path 68" d="M526.275,310.881s-.084.771-1.318,1.118a2.1,2.1,0,0,1-2.075-.672l-.274,2.518,3.944,2.78h3.276l-1.772-1.967Z" transform="translate(-498.831 -265.541)" fill="#133a50"/>
        <path id="Path_69" data-name="Path 69" d="M551.885,304.318a1.354,1.354,0,0,1-.489,1.787,2.1,2.1,0,0,1-2.182-.008l.506,2.481,9.313-2.913Z" transform="translate(-511.293 -262.467)" fill="#133a50"/>
      </g>
      <g id="Group_34" data-name="Group 34">
        <path id="Path_70" data-name="Path 70" d="M530.6,176.195a19.885,19.885,0,0,1-1.552-1.847l-.358-1.621s-.627-.839-1.112-1.345a8.871,8.871,0,0,1-.915-2.678l.63-.38a7.875,7.875,0,0,0,.5,1.185,1.127,1.127,0,0,0,.611.25,11.808,11.808,0,0,0,.019-1.511,13.229,13.229,0,0,0-.576-2.55l.526-.256a11.575,11.575,0,0,1,.5,1.168c.111.37.305,1.132.305,1.132a12.758,12.758,0,0,0-.161-1.727c-.122-.5-.214-1.147-.214-1.147l.551-.141a10.557,10.557,0,0,1,.366,1.393c.088.571.284,1.537.284,1.537a16.739,16.739,0,0,0,.021-1.757,5.739,5.739,0,0,1-.057-.618l.585.015a4.457,4.457,0,0,1,.207,1.324,6.168,6.168,0,0,0,.059,1.053,6.653,6.653,0,0,0,.163-1.435,1.221,1.221,0,0,1-.022-.487l.451.077s.256,1.789.338,2.869-.049,2.451-.06,3.215-.029,1.361-.029,1.361Z" transform="translate(-497.459 -160.391)" fill="#fec4ad"/>
        <path id="Path_71" data-name="Path 71" d="M507.6,185.818a70.945,70.945,0,0,0,7.269,5.193s1.352-3.392,2-5.794c.77-2.869,1-4.191,1-4.191l2.742-.224s-.869,7.338-1.948,12.315c-1.049,4.839-2.367,3.974-3.527,3.737s-12.072-6.1-12.072-6.1l1.168-6.231S505,183.684,507.6,185.818Z" transform="translate(-486.402 -167.92)" fill="#fec4ad"/>
        <path id="Path_72" data-name="Path 72" d="M489.911,156.847a6.956,6.956,0,0,1,5.167.523c3.376,2.079,1.755,7.773,1.544,9.085s1,3.675.98,5.241-.393,2.134-1.563,3.65a2.9,2.9,0,0,0-.436,1.211,11.177,11.177,0,0,1-1.571-4.629c-.276-2.695-.849-2.066-2.2-5.026a22.344,22.344,0,0,1-1.407-7.416Z" transform="translate(-480.244 -156.57)" fill="#471a16"/>
        <path id="Path_73" data-name="Path 73" d="M486.5,159.007l-2.807-1.931a4.1,4.1,0,0,0-3.791,1.813c-1.392,2.133-1.878,5.222-2.191,7.543a82.181,82.181,0,0,0-1.075,8.415c.056,1.731,2.159,1.967,2.159,1.967l7.053-3.051a20.933,20.933,0,0,1-.065-7.661A38.014,38.014,0,0,0,486.5,159.007Z" transform="translate(-474.024 -156.799)" fill="#471a16"/>
        <path id="Path_74" data-name="Path 74" d="M493.158,160.816a41.972,41.972,0,0,1,.895,5.11c.068,1.654-.129,4.378-1.224,5.13s-3.152.151-4.658-.472a3.548,3.548,0,0,1-2.163-2.649,15.726,15.726,0,0,1,.154-5.4,3.289,3.289,0,0,1,2.875-2.846C490.4,159.439,493.158,160.816,493.158,160.816Z" transform="translate(-478.335 -158.018)" fill="#fec4ad"/>
        <path id="Path_75" data-name="Path 75" d="M484.961,173.409s.385,4.11-.48,6.045c-.6,1.335-3.013,1.9-3.013,1.9a13.628,13.628,0,0,0,2.334,7.266c2.425,3.569,10.009,4.89,10.009,4.89a33.091,33.091,0,0,0,2.264-6.318,7.372,7.372,0,0,0-1.336-5.919s-2.05-.671-3.034-1.041c-2.389-.9-2.11-4.7-2.11-4.7Z" transform="translate(-476.289 -164.458)" fill="#fec4ad"/>
        <path id="Path_76" data-name="Path 76" d="M486.072,189.183s-4.9-1.246-6.376-2.2l-4.862,2.89s-2.856,2.726,2.018,9.889c0,0,1.85,6.525-1.153,18.02,0,0,.812,2.961,5.366,1.384,3.92-1.357,4.008-2.417,7.442-3.288,5.07-1.286,6.4-2.077,6.4-2.077-2.663-4-2.19-10.252-2.19-10.252s3.019-2.89,1.725-5.844a41.433,41.433,0,0,1-2.494-10.3l-2.6-.66a19.608,19.608,0,0,1-2.079,2.214A1.114,1.114,0,0,1,486.072,189.183Z" transform="translate(-472.792 -170.705)" fill="#42b2fc"/>
        <path id="Path_77" data-name="Path 77" d="M498.843,186.243s-.6,2.222-2.136,2.7c0,0,.6,3.043,2.043,2.514,2.023-.742,1.235-4.951,1.235-4.951Z" transform="translate(-483.427 -170.469)" fill="#fff"/>
        <path id="Path_78" data-name="Path 78" d="M483.61,185.879s.961,4.648,3.529,5.025,3.434-2.449,3.434-2.449-5.444-1.6-5.976-3.262Z" transform="translate(-477.293 -169.977)" fill="#fff"/>
        <path id="Path_79" data-name="Path 79" d="M485.451,159.577c-.474.031-.823,2.271-.871,3.521s-1.919,2.236-1.094,4.986.714,5.4,1.821,8.418-.272,4.117-.87,5.155a40.081,40.081,0,0,1-3.171-3.9,3.127,3.127,0,0,0-3.388-1.518s3.617-7.026,3.5-8.921-.457-4.787,1.052-6.517A2.965,2.965,0,0,1,485.451,159.577Z" transform="translate(-474.608 -157.947)" fill="#471a16"/>
        <path id="Path_80" data-name="Path 80" d="M486.592,169.354s-1.006-1.1-1.67-.933-.706,1.164-.2,1.98,2.377,1.276,2.377,1.276Z" transform="translate(-477.653 -162.113)" fill="#fec4ad"/>
        <path id="Path_81" data-name="Path 81" d="M491.259,162.506a13.324,13.324,0,0,0,2.855-.207,4.422,4.422,0,0,1,2.593.267l-.689-3.032a9.584,9.584,0,0,0-3.637-1.173c-1.92.013-3.6.747-2.648,1.368C490.738,160.387,491.259,162.506,491.259,162.506Z" transform="translate(-480.031 -157.409)" fill="#471a16"/>
        <g id="Group_33" data-name="Group 33" transform="translate(0 18.933)">
          <path id="Path_82" data-name="Path 82" d="M477.9,195.817c-.326,3.8-1.445,14.646-1.445,14.646,3.462,3.029,8.362,8.065,8.362,8.065s-1.395,2.75-1.991,2.284c-4.77-3.729-10.222-5.936-10.612-8.532-.639-4.263-.86-14.991.71-18.48C474.13,191.111,478.24,191.781,477.9,195.817Z" transform="translate(-471.726 -192.186)" fill="#fec4ad"/>
          <path id="Path_83" data-name="Path 83" d="M496.427,241.794c1.45.544,2.362,1.078,2.275,1.619-.06.373-1.3-.308-2.037-.284a4.11,4.11,0,0,0,1.762,1.729c.957.472,1.493,1.126.981,1.68s-1.458,1.33-2.074,1.046-2.805-1.812-3.629-2.235-1.154-1.459-1.578-1.744.777-2.464.777-2.464c.228.063,1.423.318,1.423.318a7.608,7.608,0,0,0,1.185.1A2.892,2.892,0,0,1,496.427,241.794Z" transform="translate(-481.239 -215.116)" fill="#fec4ad"/>
        </g>
      </g>
    </g>
    <line id="Line_1" data-name="Line 1" x2="324.008" transform="translate(0 170.33)" fill="none" stroke="#194459" stroke-miterlimit="10" stroke-width="1"/>
  </g>
</svg>
