<svg xmlns="http://www.w3.org/2000/svg" width="29.252" height="25.997" viewBox="0 0 29.252 25.997">
  <path id="Icon_awesome-edit" data-name="Icon awesome-edit" d="M20.446,4.227l4.581,4.581a.5.5,0,0,1,0,.7L13.935,20.6l-4.713.523a.988.988,0,0,1-1.092-1.092l.523-4.713L19.745,4.227A.5.5,0,0,1,20.446,4.227Zm8.227-1.163L26.195.586a1.986,1.986,0,0,0-2.8,0l-1.8,1.8a.5.5,0,0,0,0,.7l4.581,4.581a.5.5,0,0,0,.7,0l1.8-1.8a1.986,1.986,0,0,0,0-2.8ZM19.5,17.584v5.17H3.25V6.5h11.67a.624.624,0,0,0,.432-.178l2.031-2.031a.609.609,0,0,0-.432-1.041H2.438A2.438,2.438,0,0,0,0,5.69V23.566A2.438,2.438,0,0,0,2.438,26H20.314a2.438,2.438,0,0,0,2.438-2.438V15.552a.611.611,0,0,0-1.041-.432l-2.031,2.031A.624.624,0,0,0,19.5,17.584Z" transform="translate(0 -0.007)" fill="#0068b0" opacity="0.95"/>
</svg>
