<svg xmlns="http://www.w3.org/2000/svg" width="9.369" height="21.636" viewBox="0 0 9.369 21.636">
  <g id="Icon_map-unisex" data-name="Icon map-unisex" transform="translate(0 0)" opacity="0.55">
    <path id="Path_14384" data-name="Path 14384" d="M19.065,3.143A2.783,2.783,0,1,1,16.283.36a2.783,2.783,0,0,1,2.783,2.783Z" transform="translate(-12.083 -0.36)" fill="#141414"/>
    <path id="Path_14385" data-name="Path 14385" d="M13.649,7.2H12.311c-1.258,0-2.231.671-2.231,1.791v4.847c0,.781,1.338.781,1.338,0V9.152h.446V21.647c0,.481.343.781.892.781s.892-.3.892-.781Zm5.8,5.857L17.656,9.013A2.474,2.474,0,0,0,15.262,7.2H14.095v9.286c.223,0,.446.029.446.085v5.076a.9.9,0,0,0,1.784,0V16.571h1.726c.161,0,.466-.255.466-.39,0-.031.013-.364,0-.39L15.881,9.45l-.015-.065a.185.185,0,0,1,.2-.168.2.2,0,0,1,.194.128l1.792,4.1a1.2,1.2,0,0,0,.931.39c.43,0,.475-.74.466-.781Z" transform="translate(-10.08 -0.791)" fill="#141414"/>
  </g>
</svg>
