<svg xmlns="http://www.w3.org/2000/svg" width="24.496" height="24.491" viewBox="0 0 24.496 24.491">
  <path id="Icon_awesome-instagram" data-name="Icon awesome-instagram" d="M12.245,8.2a6.279,6.279,0,1,0,6.279,6.279A6.269,6.269,0,0,0,12.245,8.2Zm0,10.361a4.082,4.082,0,1,1,4.082-4.082,4.09,4.09,0,0,1-4.082,4.082Zm8-10.618a1.465,1.465,0,1,1-1.465-1.465A1.461,1.461,0,0,1,20.246,7.947ZM24.4,9.433A7.248,7.248,0,0,0,22.426,4.3a7.3,7.3,0,0,0-5.131-1.978c-2.022-.115-8.082-.115-10.1,0A7.285,7.285,0,0,0,2.059,4.3,7.272,7.272,0,0,0,.081,9.428c-.115,2.022-.115,8.082,0,10.1a7.248,7.248,0,0,0,1.978,5.131,7.3,7.3,0,0,0,5.131,1.978c2.022.115,8.082.115,10.1,0a7.248,7.248,0,0,0,5.131-1.978A7.3,7.3,0,0,0,24.4,19.532c.115-2.022.115-8.077,0-10.1ZM21.792,21.7a4.133,4.133,0,0,1-2.328,2.328c-1.612.639-5.437.492-7.219.492s-5.612.142-7.219-.492A4.133,4.133,0,0,1,2.7,21.7c-.639-1.612-.492-5.437-.492-7.219S2.065,8.871,2.7,7.264A4.133,4.133,0,0,1,5.026,4.936c1.612-.639,5.437-.492,7.219-.492s5.612-.142,7.219.492a4.133,4.133,0,0,1,2.328,2.328c.639,1.612.492,5.437.492,7.219S22.432,20.1,21.792,21.7Z" transform="translate(0.005 -2.238)" fill="#d84545"/>
</svg>
