<svg xmlns="http://www.w3.org/2000/svg" width="27.557" height="27.557" viewBox="0 0 27.557 27.557">
  <path id="Icon_simple-instagram" data-name="Icon simple-instagram" d="M13.779,0C10.035,0,9.568.017,8.1.083A10.16,10.16,0,0,0,4.754.723,6.747,6.747,0,0,0,2.313,2.313,6.723,6.723,0,0,0,.723,4.754,10.13,10.13,0,0,0,.083,8.1C.014,9.568,0,10.035,0,13.779s.017,4.211.083,5.68A10.166,10.166,0,0,0,.723,22.8a6.757,6.757,0,0,0,1.589,2.441,6.738,6.738,0,0,0,2.441,1.589,10.173,10.173,0,0,0,3.345.641c1.47.069,1.937.083,5.68.083s4.211-.017,5.68-.083a10.2,10.2,0,0,0,3.345-.641,7.042,7.042,0,0,0,4.03-4.03,10.166,10.166,0,0,0,.641-3.345c.069-1.47.083-1.937.083-5.68s-.017-4.211-.083-5.68a10.19,10.19,0,0,0-.641-3.345,6.763,6.763,0,0,0-1.589-2.441A6.713,6.713,0,0,0,22.8.723,10.137,10.137,0,0,0,19.459.083C17.989.014,17.522,0,13.779,0Zm0,2.48c3.678,0,4.116.018,5.569.082a7.591,7.591,0,0,1,2.557.477A4.534,4.534,0,0,1,24.52,5.653a7.607,7.607,0,0,1,.474,2.557c.065,1.454.08,1.89.08,5.569s-.017,4.116-.085,5.569a7.754,7.754,0,0,1-.483,2.557,4.375,4.375,0,0,1-1.032,1.587A4.3,4.3,0,0,1,21.89,24.52a7.663,7.663,0,0,1-2.566.474c-1.463.065-1.893.08-5.579.08s-4.118-.017-5.579-.085A7.813,7.813,0,0,1,5.6,24.506a4.267,4.267,0,0,1-1.583-1.032A4.184,4.184,0,0,1,2.981,21.89,7.82,7.82,0,0,1,2.5,19.323c-.052-1.447-.07-1.893-.07-5.562s.018-4.118.07-5.582a7.811,7.811,0,0,1,.482-2.565A4.084,4.084,0,0,1,4.014,4.029,4.075,4.075,0,0,1,5.6,3a7.626,7.626,0,0,1,2.55-.483c1.464-.052,1.895-.069,5.579-.069l.052.034Zm0,4.223a7.075,7.075,0,1,0,7.075,7.075A7.075,7.075,0,0,0,13.779,6.7Zm0,11.668a4.593,4.593,0,1,1,4.593-4.593A4.592,4.592,0,0,1,13.779,18.372ZM22.788,6.424a1.653,1.653,0,1,1-1.653-1.652A1.655,1.655,0,0,1,22.788,6.424Z" fill="#0068b0"/>
</svg>
