<svg xmlns="http://www.w3.org/2000/svg" xmlns:xlink="http://www.w3.org/1999/xlink" width="303.383" height="241.273" viewBox="0 0 303.383 241.273">
  <defs>
    <linearGradient id="linear-gradient" x1="0.5" x2="0.5" y2="1" gradientUnits="objectBoundingBox">
      <stop offset="0" stop-color="#cedd6c"/>
      <stop offset="0" stop-color="#2b2e83"/>
      <stop offset="0.414" stop-color="#347ea7"/>
      <stop offset="0.782" stop-color="#94c8e4"/>
      <stop offset="1" stop-color="#b9e5fc"/>
    </linearGradient>
  </defs>
  <g id="Group_1599" data-name="Group 1599" transform="translate(-926.312 -74.213)">
    <path id="Path_9411" data-name="Path 9411" d="M141.8,265.88h41.911c22.842-4.046,39.806-9.27,54.7-.338l.594.338H334.07c24.233,0,49.621-20.792,55.908-42.854,19.821-69.8-30.667-101.369-78.412-88.778-31.458,8.294-40.777-45.008-90.033-57.839,0,0-28.5-9.194-48.067,14.974-17.569,21.675,9.15,59.818-21.294,69.982-19.036,6.369-58.58,8.223-61.072,51.421C89.481,240.2,111.789,263.944,141.8,265.88Z" transform="translate(835.294 19.308)" fill="#eaeae8" opacity="0.42"/>
    <path id="Path_9416" data-name="Path 9416" d="M526.343,175.66A10.671,10.671,0,0,1,515.671,165,10.671,10.671,0,0,1,505,175.66a10.671,10.671,0,0,1,10.671,10.671,10.671,10.671,0,0,1,10.671-10.671Z" transform="translate(647.051 -1.756)" fill="#f3bd53"/>
    <path id="Path_9417" data-name="Path 9417" d="M497.958,173.064a4.5,4.5,0,0,1-4.5-4.5,4.5,4.5,0,0,1-4.5,4.5,4.5,4.5,0,0,1,4.5,4.5A4.5,4.5,0,0,1,497.958,173.064Z" transform="translate(654.349 -3.375)" fill="#f3bd53"/>
    <path id="Path_9419" data-name="Path 9419" d="M624.79,343.2" transform="translate(592.581 -82.786)" fill="#283034"/>
    <path id="Path_9420" data-name="Path 9420" d="M624.01,343.372a1.009,1.009,0,1,0-.935-1.006A1.009,1.009,0,0,0,624.01,343.372Z" transform="translate(593.361 -81.949)" fill="#283034"/>
    <path id="Path_9421" data-name="Path 9421" d="M299.2,106.59" transform="translate(740.631 24.803)" fill="#283034"/>
    <path id="Path_9422" data-name="Path 9422" d="M298.421,106.762a1.009,1.009,0,1,0-.935-1.006A1.009,1.009,0,0,0,298.421,106.762Z" transform="translate(741.41 25.64)" fill="#283034"/>
    <path id="Path_9423" data-name="Path 9423" d="M139.545,301.49a.545.545,0,0,1-.545-.545v-3.49a.545.545,0,0,1,1.091,0v3.49A.545.545,0,0,1,139.545,301.49Z" transform="translate(813.476 -61.737)" fill="#283034"/>
    <path id="Path_9424" data-name="Path 9424" d="M139.845,301.2h-3.49a.545.545,0,1,1,0-1.091h3.49a.545.545,0,0,1,0,1.091Z" transform="translate(814.926 -63.192)" fill="#283034"/>
    <path id="Path_9425" data-name="Path 9425" d="M478.485,141.81a.545.545,0,0,1-.545-.545v-3.49a.545.545,0,1,1,1.091,0v3.49A.545.545,0,0,1,478.485,141.81Z" transform="translate(659.356 10.871)" fill="#283034"/>
    <path id="Path_9426" data-name="Path 9426" d="M478.775,141.521h-3.49a.545.545,0,0,1,0-1.091h3.49a.545.545,0,0,1,0,1.091Z" transform="translate(660.811 9.416)" fill="#283034"/>
    <path id="Path_9427" data-name="Path 9427" d="M164.872,293.327s-10.491-3.141-13.736-11.849-.18-20.05-7.089-26.812-.562-14.074,5.7-13.774,14.363,10.977,19.145,26.594C172.19,278.365,170.772,286.609,164.872,293.327Z" transform="translate(1172.305 -52.556) rotate(38)" fill="#b77c54"/>
    <path id="Path_9428" data-name="Path 9428" d="M206.9,288.845a24.151,24.151,0,0,0,10.028-11.756c3.272-8.228.654-15.9,8.528-19.287s9.117-11.724,3.915-15.268-15.813-1.636-24.363,12.094C198.2,265.566,194.555,278.332,206.9,288.845Z" transform="translate(1151.653 -68.746) rotate(38)" fill="#b77c54"/>
    <path id="Path_9429" data-name="Path 9429" d="M188.091,256.251s-6.663-6.173-5.137-17.967-6.631-35.656,6.118-37.576c12.34-1.859,13.381,12,13.381,18.131S203.163,251.878,188.091,256.251Z" transform="translate(1146.417 -49.501) rotate(38)" fill="#b77c54"/>
    <path id="Path_9430" data-name="Path 9430" d="M151.89,248.72a28.829,28.829,0,0,1,5.96,6.614,30.6,30.6,0,0,1,3.817,8.1,21.22,21.22,0,0,1,.545,2.181c.076.365.18.725.234,1.091l.164,1.091.158,1.091.125,1.091c.076.736.191,1.467.284,2.181.42,2.928.992,5.84,1.679,8.725a97.019,97.019,0,0,0,5.676,16.817,60.619,60.619,0,0,0,4.171,7.885,29.443,29.443,0,0,0,2.634,3.533,13.419,13.419,0,0,0,3.3,2.819l-.262.48a13.839,13.839,0,0,1-3.468-2.912,30.833,30.833,0,0,1-2.726-3.588,55.7,55.7,0,0,1-4.237-7.885,97.061,97.061,0,0,1-5.676-16.937c-.682-2.9-1.249-5.829-1.669-8.779-.093-.742-.2-1.478-.278-2.219s-.164-1.478-.267-2.208l-.147-1.091c-.044-.371-.142-.725-.213-1.091a20.9,20.9,0,0,0-.545-2.148,31.55,31.55,0,0,0-9.259-14.837Z" transform="translate(1170.614 -58.4) rotate(38)" fill="#263138"/>
    <path id="Path_9431" data-name="Path 9431" d="M194.894,221.28q.594,4.793.823,9.635c.169,3.223.2,6.451.1,9.679a93.193,93.193,0,0,1-2.606,19.172c-.371,1.576-.78,3.135-1.238,4.689-.224.78-.491,1.543-.709,2.307s-.414,1.543-.589,2.323a50.444,50.444,0,0,0-1.238,9.515,38.035,38.035,0,0,0,3.861,18.573l-.48.256a37.816,37.816,0,0,1-4.008-18.845,51.125,51.125,0,0,1,1.249-9.63q.273-1.189.605-2.356c.224-.791.491-1.543.714-2.312q.676-2.307,1.243-4.657c.747-3.125,1.363-6.282,1.81-9.461s.72-6.38.856-9.592a164.013,164.013,0,0,0-.4-19.3Z" transform="translate(1149.717 -58.892) rotate(38)" fill="#263138"/>
    <path id="Path_9432" data-name="Path 9432" d="M226.909,252.23a36.385,36.385,0,0,0-3.484,2.781,37.175,37.175,0,0,0-3.141,3.146,28.535,28.535,0,0,0-4.853,7.361,27.369,27.369,0,0,0-1.958,8.583c-.284,2.95-.4,5.927-.725,8.9a31.218,31.218,0,0,1-2,8.763c-.153.344-.273.7-.458,1.036l-.545,1.009-1.063,1.952c-.344.649-.633,1.331-.954,1.99s-.545,1.369-.823,2.056a38.8,38.8,0,0,0-2,8.6,33.371,33.371,0,0,0,.131,8.817l-.545.1a33.983,33.983,0,0,1-.2-8.986,37.446,37.446,0,0,1,2-8.757c.278-.7.545-1.4.84-2.088s.616-1.369.971-2.034l1.091-1.974.507-.971a10.9,10.9,0,0,0,.436-1,31.436,31.436,0,0,0,1.985-8.577c.338-2.945.469-5.922.769-8.894a38.676,38.676,0,0,1,.665-4.444c.087-.365.147-.736.256-1.091l.316-1.091c.1-.365.267-.709.393-1.063a8.715,8.715,0,0,1,.431-1.042c.338-.671.633-1.369,1.036-2.007l.545-.971.633-.932c.4-.633.894-1.2,1.341-1.8A15.534,15.534,0,0,1,220,257.917a34.9,34.9,0,0,1,6.909-5.687Z" transform="translate(1152.893 -74.27) rotate(38)" fill="#263138"/>
    <path id="Path_9440" data-name="Path 9440" d="M309.622,111.16h84.961a19.992,19.992,0,0,1,19.992,19.992V325.247a16.113,16.113,0,0,1-16.113,16.113H305.714a16.113,16.113,0,0,1-16.084-16.113V131.152A19.992,19.992,0,0,1,309.622,111.16Z" transform="translate(716.255 -36.947)" fill="url(#linear-gradient)"/>
    <path id="Path_9441" data-name="Path 9441" d="M399.539,120.14H390.71a2.322,2.322,0,0,0-2.322,2.322h0a8.747,8.747,0,0,1-8.747,8.747h-48.4a8.747,8.747,0,0,1-8.747-8.747h0a2.322,2.322,0,0,0-2.322-2.322h-8.829A12.138,12.138,0,0,0,299.2,132.278V326.723a12.138,12.138,0,0,0,12.138,12.138h88.2a12.138,12.138,0,0,0,12.138-12.138V132.278a12.138,12.138,0,0,0-12.138-12.138Z" transform="translate(711.631 -39.328)" fill="#eaeae8"/>
    <rect id="Rectangle_2210" data-name="Rectangle 2210" width="75.724" height="7.28" transform="translate(1042.628 154.694)" fill="#eaeae8"/>
    <rect id="Rectangle_2211" data-name="Rectangle 2211" width="75.724" height="14.488" transform="translate(1042.628 165.61)" fill="#eaeae8"/>
    <rect id="Rectangle_2212" data-name="Rectangle 2212" width="75.724" height="14.488" transform="translate(1042.628 276.173)" fill="#eaeae8"/>
    <path id="Path_9442" data-name="Path 9442" d="M388.783,125.974H341.856a2.916,2.916,0,0,1-2.916-2.908h0a2.916,2.916,0,0,1,2.916-2.916h46.927a2.916,2.916,0,0,1,2.916,2.916h0a2.916,2.916,0,0,1-2.916,2.908Z" transform="translate(701.375 -39.331)" fill="#263138"/>
    <rect id="Rectangle_2213" data-name="Rectangle 2213" width="31.676" height="3.343" transform="translate(937.693 187.585)" fill="#eeedeb"/>
    <rect id="Rectangle_2214" data-name="Rectangle 2214" width="31.676" height="3.343" transform="translate(1193.597 233.608)" fill="#eeedeb"/>
    <rect id="Rectangle_2215" data-name="Rectangle 2215" width="31.676" height="3.343" transform="translate(926.367 193.747)" fill="#eeedeb"/>
    <g id="Group_1598" data-name="Group 1598" transform="translate(828.23 -10.692)">
      <rect id="Rectangle_2216" data-name="Rectangle 2216" width="97.553" height="113.031" transform="translate(163.77 137.83)" fill="#0068b0"/>
      <rect id="Rectangle_2217" data-name="Rectangle 2217" width="66.983" height="17.533" transform="translate(178.77 223.27)" fill="#eee"/>
      <text id="_8778787" data-name="8778787" transform="translate(189.77 237.75)" font-size="12" font-family="SegoeUI, Segoe UI"><tspan x="0" y="0">8778787</tspan></text>
      <g id="Group_4438" data-name="Group 4438" transform="translate(0 1)">
        <path id="Path_9443" data-name="Path 9443" d="M288.11,208.839a94.8,94.8,0,0,1,24.569-5.148c11.056-.639,23.028,2.162,27.891,5.148L339.1,256.27H288.11Z" transform="translate(-101.84 -48.578)" fill="#f5cfa1" stroke="#fff" stroke-miterlimit="10" stroke-width="4.93"/>
        <path id="Icon_awesome-phone-alt" data-name="Icon awesome-phone-alt" d="M24.287,17.666l-5.469-2.344a1.172,1.172,0,0,0-1.367.337l-2.422,2.959A18.1,18.1,0,0,1,6.377,9.967L9.336,7.545a1.169,1.169,0,0,0,.337-1.367L7.329.709A1.18,1.18,0,0,0,5.986.03L.908,1.2A1.172,1.172,0,0,0,0,2.344,22.654,22.654,0,0,0,22.657,25a1.172,1.172,0,0,0,1.143-.908l1.172-5.078A1.186,1.186,0,0,0,24.287,17.666Z" transform="translate(201.282 166.192)" fill="#141414"/>
      </g>
    </g>
  </g>
</svg>
