<svg id="Group_3859" data-name="Group 3859" xmlns="http://www.w3.org/2000/svg" width="225.669" height="330.57" viewBox="0 0 225.669 330.57">
  <g id="Group_3851" data-name="Group 3851">
    <g id="Group_3839" data-name="Group 3839">
      <path id="Path_4666" data-name="Path 4666" d="M14.059,0H147.047a14.06,14.06,0,0,1,14.06,14.06V261.59a14.059,14.059,0,0,1-14.059,14.059H14.059A14.059,14.059,0,0,1,0,261.59V14.059A14.059,14.059,0,0,1,14.059,0Z" fill="#242424"/>
      <rect id="Rectangle_1619" data-name="Rectangle 1619" width="141.856" height="255.75" rx="7.752" transform="translate(9.69 9.949)" fill="#f5f6ff"/>
      <path id="Rectangle_1620" data-name="Rectangle 1620" d="M0,0H78.476a0,0,0,0,1,0,0V11.342a5.069,5.069,0,0,1-5.069,5.069H5.069A5.069,5.069,0,0,1,0,11.342V0A0,0,0,0,1,0,0Z" transform="translate(43.346 3.135)" fill="#161515"/>
    </g>
    <g id="Group_3850" data-name="Group 3850" transform="translate(21.829 38.336)">
      <g id="Group_3842" data-name="Group 3842" transform="translate(0 42.851)">
        <g id="Group_3840" data-name="Group 3840" transform="translate(55.131 7.081)">
          <rect id="Rectangle_1621" data-name="Rectangle 1621" width="62.447" height="8.875" fill="#0068b0"/>
          <rect id="Rectangle_1622" data-name="Rectangle 1622" width="45.202" height="8.875" transform="translate(17.245 13.282)" fill="#0068b0"/>
        </g>
        <path id="Path_14417" data-name="Path 14417" d="M2.841,0H33.478a2.841,2.841,0,0,1,2.841,2.841V33.478a2.841,2.841,0,0,1-2.841,2.841H2.841A2.841,2.841,0,0,1,0,33.478V2.841A2.841,2.841,0,0,1,2.841,0Z" fill="#0068b0"/>
        <g id="Group_3841" data-name="Group 3841" transform="translate(6.286 5.974)">
          <path id="Path_4559" data-name="Path 4559" d="M128.865,167.514l-10.626,17s2.627,4.562,10.626,4.562,10.626-4.562,10.626-4.562Z" transform="translate(-116.991 -167.514)" fill="#fff"/>
          <path id="Path_4560" data-name="Path 4560" d="M117.593,177.772s3.874,4.56,11.874,4.56,11.874-4.56,11.874-4.56" transform="translate(-117.593 -157.961)" fill="none" stroke="#fff" stroke-linecap="round" stroke-linejoin="round" stroke-width="0.969"/>
        </g>
      </g>
      <g id="Group_3844" data-name="Group 3844" transform="translate(0 85.701)">
        <g id="Group_3843" data-name="Group 3843" transform="translate(55.131 7.081)">
          <rect id="Rectangle_1624" data-name="Rectangle 1624" width="62.447" height="8.875" fill="#0068b0"/>
          <rect id="Rectangle_1625" data-name="Rectangle 1625" width="45.202" height="8.875" transform="translate(17.245 13.282)" fill="#0068b0"/>
        </g>
        <path id="Path_4667" data-name="Path 4667" d="M3.435,0H32.883a3.435,3.435,0,0,1,3.435,3.435V32.883a3.435,3.435,0,0,1-3.435,3.435H3.435A3.435,3.435,0,0,1,0,32.883V3.435A3.435,3.435,0,0,1,3.435,0Z" fill="#0068b0"/>
      </g>
      <g id="Group_3849" data-name="Group 3849">
        <g id="Group_3845" data-name="Group 3845" transform="translate(55.131 7.081)">
          <rect id="Rectangle_1627" data-name="Rectangle 1627" width="62.447" height="8.875" fill="#0068b0"/>
          <rect id="Rectangle_1628" data-name="Rectangle 1628" width="45.202" height="8.874" transform="translate(17.245 13.282)" fill="#0068b0"/>
        </g>
        <g id="Group_3848" data-name="Group 3848">
          <rect id="Rectangle_1629" data-name="Rectangle 1629" width="36.319" height="36.319" rx="2.841" fill="#0068b0"/>
          <g id="Group_3847" data-name="Group 3847" transform="translate(10.408 4.194)">
            <path id="Path_4561" data-name="Path 4561" d="M131.28,166.931h-8.84l-2.047-16.722h12.934Z" transform="translate(-119.108 -139)" fill="#fff"/>
            <path id="Path_4562" data-name="Path 4562" d="M135.23,151.065h-15.5l.682-2.874h14.138Z" transform="translate(-119.728 -140.879)" fill="#fff"/>
            <g id="Group_3846" data-name="Group 3846" transform="translate(7.751)">
              <path id="Path_4563" data-name="Path 4563" d="M125.2,150.693l-1.458-.017,2.265-5.836a.678.678,0,0,1,.635-.435h3.136v1.363h-2.669Z" transform="translate(-123.741 -144.405)" fill="#fff"/>
            </g>
          </g>
        </g>
      </g>
    </g>
  </g>
  <g id="Group_3858" data-name="Group 3858" transform="translate(0.806 105.709)">
    <g id="Group_3854" data-name="Group 3854">
      <path id="Path_4564" data-name="Path 4564" d="M234.374,322.432l-48.705-48.705,14.394-14.394,48.705,48.705a10.178,10.178,0,0,1,0,14.394h0A10.178,10.178,0,0,1,234.374,322.432Z" transform="translate(-26.886 -100.552)" fill="#242424"/>
      <path id="Rectangle_1630" data-name="Rectangle 1630" d="M0,0H11.8a4.552,4.552,0,0,1,4.552,4.552V31.8A4.552,4.552,0,0,1,11.8,36.348H0a0,0,0,0,1,0,0V0A0,0,0,0,1,0,0Z" transform="translate(173.048 147.345) rotate(45)" fill="#f9ca24"/>
      <g id="Group_3852" data-name="Group 3852">
        <path id="Path_4565" data-name="Path 4565" d="M131.8,342.539a96.929,96.929,0,1,1,137.078,0A97.036,97.036,0,0,1,131.8,342.539ZM252.769,221.569a74.106,74.106,0,1,0,10.555,91.577A74.233,74.233,0,0,0,252.769,221.569Z" transform="translate(-103.453 -177.118)" fill="#161515"/>
      </g>
      <g id="Group_3853" data-name="Group 3853" transform="translate(16.691 16.689)">
        <path id="Path_4566" data-name="Path 4566" d="M135.556,322.684a80.23,80.23,0,1,1,113.466,0A80.319,80.319,0,0,1,135.556,322.684ZM244.721,213.521a74.15,74.15,0,1,0,0,104.864A74.233,74.233,0,0,0,244.721,213.521Z" transform="translate(-112.095 -185.76)" fill="#f3bd53"/>
      </g>
      <path id="Path_4668" data-name="Path 4668" d="M74.862,0A74.917,74.917,0,1,1,0,74.862,74.862,74.862,0,0,1,74.862,0Z" transform="translate(6.662 152.277) rotate(-76.549)" fill="#fff" stroke="#22551d" stroke-width="1"/>
    </g>
    <g id="Group_3857" data-name="Group 3857" transform="translate(46.013 54.231)">
      <rect id="Rectangle_1631" data-name="Rectangle 1631" width="99.049" height="21.173" rx="4.164" transform="translate(2.693 64.132)" fill="#f6e58d"/>
      <path id="Path_4568" data-name="Path 4568" d="M131.154,236.943l-3.005,12.04a2.191,2.191,0,0,0,3,2.54l28.7-12.461h16.084l19.634,15.34a2.187,2.187,0,0,0,2.708-.008l19.369-15.333h3.816l5.5,8.295a.663.663,0,0,0,1.194-.535l-2.439-9.228Z" transform="translate(-126.531 -175.634)" fill="#f9ca24"/>
      <rect id="Rectangle_1632" data-name="Rectangle 1632" width="99.049" height="21.173" rx="4.164" transform="translate(2.693 42.959)" fill="#eb4d4b"/>
      <path id="Path_4569" data-name="Path 4569" d="M134.07,225.051s-7.8,7.746-6.682,10.518,3.809.284,8.635-1.029,7.418-1.35,8.266,1.41-1.263,4.454,2.24,5.545,5.072-4.17,8.751-4.027,5.23.543,6.866,2.312,2.086,2.515,4.674,2.615,2.93-5.186,6.393-6.553,3.067-.562,6.209.514a8.615,8.615,0,0,0,8.448-2.128c2.053-1.9,5.131-2.142,6.5,1.2s3.171,9.682,5.6,10.458,5.411,1.165,6.916-2.46.929-9.921,4.334-9.79,2.692,1.848,4.624,3.932,5.45,1,6.265.243-.7-4.614,1.794-4.094c7.3,1.526,4.884-2.758,1.848-8.878S134.07,225.051,134.07,225.051Z" transform="translate(-127.278 -189.394)" fill="#badc58"/>
      <path id="Path_4570" data-name="Path 4570" d="M222.95,243.046H133.444a4.771,4.771,0,0,1-4.772-4.77h0A33.077,33.077,0,0,1,161.749,205.2h32.9a33.077,33.077,0,0,1,33.077,33.077h0A4.771,4.771,0,0,1,222.95,243.046Z" transform="translate(-125.98 -205.198)" fill="#f6e58d"/>
      <g id="Group_3856" data-name="Group 3856" transform="translate(25.001 2.552)">
        <line id="Line_421" data-name="Line 421" x1="4.132" y2="3.581" fill="none" stroke="#ffbe76" stroke-linecap="round" stroke-miterlimit="10" stroke-width="1"/>
        <line id="Line_422" data-name="Line 422" x1="4.132" y2="3.581" transform="translate(22.466 7.059)" fill="none" stroke="#ffbe76" stroke-linecap="round" stroke-miterlimit="10" stroke-width="1"/>
        <line id="Line_423" data-name="Line 423" x2="0.966" y2="4.739" transform="translate(16.416 0.589)" fill="none" stroke="#ffbe76" stroke-linecap="round" stroke-miterlimit="10" stroke-width="1"/>
        <line id="Line_424" data-name="Line 424" x1="1.177" y2="4.703" transform="translate(35.693 1.229)" fill="none" stroke="#ffbe76" stroke-linecap="round" stroke-miterlimit="10" stroke-width="1"/>
        <line id="Line_425" data-name="Line 425" x2="2.183" y2="3.699" transform="translate(51.894 1.109)" fill="none" stroke="#ffbe76" stroke-linecap="round" stroke-miterlimit="10" stroke-width="1"/>
        <line id="Line_426" data-name="Line 426" x2="2.183" y2="3.699" transform="translate(6.349 7)" fill="none" stroke="#ffbe76" stroke-linecap="round" stroke-miterlimit="10" stroke-width="1"/>
        <line id="Line_427" data-name="Line 427" x2="2.183" y2="3.699" transform="translate(44.702 7.627)" fill="none" stroke="#ffbe76" stroke-linecap="round" stroke-miterlimit="10" stroke-width="1"/>
      </g>
    </g>
  </g>
</svg>
