<svg xmlns="http://www.w3.org/2000/svg" width="27.105" height="27.105" viewBox="0 0 27.105 27.105">
  <path id="Icon_awesome-snapchat" data-name="Icon awesome-snapchat" d="M13.553.563A13.553,13.553,0,1,0,27.105,14.115,13.55,13.55,0,0,0,13.553.563Zm9.263,18.52c-.191.443-.989.765-2.448.995a6.716,6.716,0,0,0-.235.869.421.421,0,0,1-.443.322h-.011c-.339,0-.7-.158-1.41-.158a2.873,2.873,0,0,0-2.044.749,4.077,4.077,0,0,1-2.689.995,4.169,4.169,0,0,1-2.65-.995,2.881,2.881,0,0,0-2.044-.749,13.93,13.93,0,0,0-1.41.169.434.434,0,0,1-.454-.328,6.861,6.861,0,0,0-.235-.874c-.754-.115-2.448-.41-2.486-1.169a.387.387,0,0,1,.322-.4A5.473,5.473,0,0,0,8.3,15.383c0-.005.005-.011.011-.016a.817.817,0,0,0,.087-.683c-.186-.432-.978-.585-1.312-.721-.863-.339-.984-.732-.929-1a.935.935,0,0,1,1.2-.563,2.059,2.059,0,0,0,.858.23.766.766,0,0,0,.361-.077c-.077-1.306-.257-3.17.208-4.213a4.963,4.963,0,0,1,4.6-2.967l.366-.005a4.919,4.919,0,0,1,4.607,2.967c.465,1.044.284,2.9.208,4.213a.687.687,0,0,0,.311.077,2.156,2.156,0,0,0,.8-.23,1,1,0,0,1,.743,0,.76.76,0,0,1,.568.65c.005.355-.311.661-.94.907-.077.033-.169.06-.268.093-.355.115-.9.284-1.038.628a.838.838,0,0,0,.087.683c.005.005.005.011.011.016a5.473,5.473,0,0,0,3.716,3.12A.42.42,0,0,1,22.816,19.083Z" transform="translate(0 -0.563)" fill="#fff700"/>
</svg>
