<svg id="Icon_ionic-ios-timer" data-name="Icon ionic-ios-timer" xmlns="http://www.w3.org/2000/svg" width="14.483" height="14.487" viewBox="0 0 14.483 14.487">
  <path id="Path_3425" data-name="Path 3425" d="M11.181,18.424A7.243,7.243,0,0,1,6.154,5.966a.581.581,0,0,1,.808.837,6.079,6.079,0,1,0,4.8-1.673V7.4a.583.583,0,1,1-1.166,0V4.521a.583.583,0,0,1,.583-.583,7.243,7.243,0,0,1,0,14.487Z" transform="translate(-3.938 -3.937)" fill="#141414"/>
  <path id="Path_3426" data-name="Path 3426" d="M11.827,11.32l3.6,2.589a1.09,1.09,0,1,1-1.268,1.775,1.053,1.053,0,0,1-.254-.254l-2.589-3.6a.363.363,0,0,1,.507-.507Z" transform="translate(-7.485 -7.484)" fill="#141414"/>
</svg>
