<svg xmlns="http://www.w3.org/2000/svg" width="27.98" height="22.725" viewBox="0 0 27.98 22.725">
  <path id="Icon_awesome-twitter" data-name="Icon awesome-twitter" d="M25.1,9.044c.018.249.018.5.018.746,0,7.581-5.77,16.316-16.316,16.316A16.2,16.2,0,0,1,0,23.531a11.863,11.863,0,0,0,1.385.071A11.484,11.484,0,0,0,8.5,21.152a5.745,5.745,0,0,1-5.362-3.977,7.232,7.232,0,0,0,1.083.089,6.065,6.065,0,0,0,1.509-.2,5.735,5.735,0,0,1-4.6-5.628V11.37a5.775,5.775,0,0,0,2.592.728,5.743,5.743,0,0,1-1.775-7.67,16.3,16.3,0,0,0,11.824,6,6.474,6.474,0,0,1-.142-1.314,5.74,5.74,0,0,1,9.924-3.924A11.29,11.29,0,0,0,27.2,3.807a5.719,5.719,0,0,1-2.521,3.16,11.5,11.5,0,0,0,3.3-.888A12.327,12.327,0,0,1,25.1,9.044Z" transform="translate(0 -3.381)" fill="#00c2ff"/>
</svg>
