<svg xmlns="http://www.w3.org/2000/svg" width="42" height="42" viewBox="0 0 42 42">
  <path id="Icon_ionic-logo-whatsapp" data-name="Icon ionic-logo-whatsapp" d="M23.631,2.25A20.539,20.539,0,0,0,3.013,22.709,20.248,20.248,0,0,0,5.971,33.274L2.25,44.25l11.415-3.626A20.653,20.653,0,0,0,44.25,22.709,20.539,20.539,0,0,0,23.631,2.25ZM33.883,30.479c-.485,1.2-2.679,2.3-3.647,2.351s-.994.749-6.266-1.541-8.442-7.86-8.692-8.219a10.111,10.111,0,0,1-1.945-5.48A5.842,5.842,0,0,1,15.339,13.3a2.019,2.019,0,0,1,1.428-.6c.415-.007.684-.012.991,0s.768-.064,1.167,1,1.354,3.671,1.476,3.936a.955.955,0,0,1,.01.916,3.581,3.581,0,0,1-.559.852c-.275.3-.579.66-.824.886-.274.25-.56.522-.272,1.056a15.778,15.778,0,0,0,2.792,3.725,14.386,14.386,0,0,0,4.134,2.748c.517.282.826.25,1.146-.087s1.372-1.476,1.743-1.985.718-.41,1.195-.218,3.015,1.552,3.532,1.833.862.425.985.647A4.33,4.33,0,0,1,33.883,30.479Z" transform="translate(-2.25 -2.25)" fill="#0068b0"/>
</svg>
