<svg xmlns="http://www.w3.org/2000/svg" width="29.451" height="20.707" viewBox="0 0 29.451 20.707">
  <path id="Icon_awesome-youtube" data-name="Icon awesome-youtube" d="M29.885,7.74a3.7,3.7,0,0,0-2.6-2.621C24.985,4.5,15.775,4.5,15.775,4.5s-9.209,0-11.506.619a3.7,3.7,0,0,0-2.6,2.621,38.82,38.82,0,0,0-.615,7.135,38.82,38.82,0,0,0,.615,7.135,3.645,3.645,0,0,0,2.6,2.579c2.3.619,11.506.619,11.506.619s9.209,0,11.506-.619a3.645,3.645,0,0,0,2.6-2.579,38.819,38.819,0,0,0,.615-7.135,38.819,38.819,0,0,0-.615-7.135ZM12.763,19.254V10.5l7.7,4.379-7.7,4.379Z" transform="translate(-1.05 -4.5)" fill="#0068b0"/>
</svg>
